<svg width="35" height="35" viewBox="0 0 35 35" fill="none" xmlns="http://www.w3.org/2000/svg">
<g clip-path="url(#clip0_398_691)">
<path d="M16.0417 8.75C16.4284 8.75 16.7994 8.90365 17.0729 9.17714C17.3464 9.45063 17.5 9.82156 17.5 10.2083C17.5 10.5951 17.3464 10.966 17.0729 11.2395C16.7994 11.513 16.4284 11.6667 16.0417 11.6667H7.29167V27.7083H23.3333V18.9583C23.3333 18.5716 23.487 18.2006 23.7605 17.9271C24.034 17.6536 24.4049 17.5 24.7917 17.5C25.1784 17.5 25.5494 17.6536 25.8229 17.9271C26.0964 18.2006 26.25 18.5716 26.25 18.9583V27.7083C26.25 28.4819 25.9427 29.2237 25.3957 29.7707C24.8487 30.3177 24.1069 30.625 23.3333 30.625H7.29167C6.51812 30.625 5.77625 30.3177 5.22927 29.7707C4.68229 29.2237 4.375 28.4819 4.375 27.7083V11.6667C4.375 10.8931 4.68229 10.1513 5.22927 9.60427C5.77625 9.05729 6.51812 8.75 7.29167 8.75H16.0417ZM29.1667 4.375C29.5534 4.375 29.9244 4.52865 30.1979 4.80214C30.4714 5.07563 30.625 5.44656 30.625 5.83333V13.125C30.625 13.5118 30.4714 13.8827 30.1979 14.1562C29.9244 14.4297 29.5534 14.5833 29.1667 14.5833C28.7799 14.5833 28.409 14.4297 28.1355 14.1562C27.862 13.8827 27.7083 13.5118 27.7083 13.125V9.35375L15.6144 21.4477C15.3393 21.7134 14.971 21.8603 14.5886 21.857C14.2062 21.8537 13.8404 21.7003 13.5701 21.4299C13.2997 21.1596 13.1463 20.7938 13.143 20.4114C13.1397 20.029 13.2866 19.6607 13.5523 19.3856L25.6463 7.29167H21.875C21.4882 7.29167 21.1173 7.13802 20.8438 6.86453C20.5703 6.59104 20.4167 6.22011 20.4167 5.83333C20.4167 5.44656 20.5703 5.07563 20.8438 4.80214C21.1173 4.52865 21.4882 4.375 21.875 4.375H29.1667Z" fill="#909090"/>
</g>
<defs>
<clipPath id="clip0_398_691">
<rect width="35" height="35" fill="white"/>
</clipPath>
</defs>
</svg>
