<svg width="45" height="45" viewBox="0 0 45 45" fill="none" xmlns="http://www.w3.org/2000/svg">
<g clip-path="url(#clip0_398_521)">
<path fill-rule="evenodd" clip-rule="evenodd" d="M27.7369 5.625C28.3864 5.62543 29.0158 5.85068 29.5181 6.2625L29.7244 6.45L32.6531 9.375H37.5C38.4461 9.3747 39.3573 9.73201 40.051 10.3753C40.7447 11.0186 41.1697 11.9003 41.2406 12.8438L41.25 13.125V35.625C41.2503 36.5711 40.893 37.4823 40.2497 38.176C39.6064 38.8697 38.7247 39.2947 37.7812 39.3656L37.5 39.375H7.5C6.55392 39.3753 5.64269 39.018 4.94897 38.3747C4.25526 37.7314 3.83033 36.8497 3.75938 35.9062L3.75 35.625V13.125C3.7497 12.1789 4.10701 11.2677 4.75031 10.574C5.3936 9.88026 6.27533 9.45533 7.21875 9.38438L7.5 9.375H12.3487L15.2737 6.45C15.7333 5.98953 16.3383 5.70262 16.9856 5.63812L17.2631 5.625H27.7369ZM27.3487 9.375H17.6512L14.7262 12.3C14.2667 12.7605 13.6617 13.0474 13.0144 13.1119L12.7369 13.125H7.5V35.625H37.5V13.125H32.2631C31.6136 13.1246 30.9842 12.8993 30.4819 12.4875L30.2756 12.3L27.3487 9.375ZM22.5 14.0625C24.9864 14.0625 27.371 15.0502 29.1291 16.8084C30.8873 18.5665 31.875 20.9511 31.875 23.4375C31.875 25.9239 30.8873 28.3085 29.1291 30.0666C27.371 31.8248 24.9864 32.8125 22.5 32.8125C20.0136 32.8125 17.629 31.8248 15.8709 30.0666C14.1127 28.3085 13.125 25.9239 13.125 23.4375C13.125 20.9511 14.1127 18.5665 15.8709 16.8084C17.629 15.0502 20.0136 14.0625 22.5 14.0625ZM22.5 17.8125C21.7613 17.8125 21.0299 17.958 20.3474 18.2407C19.6649 18.5234 19.0449 18.9377 18.5225 19.46C18.0002 19.9824 17.5859 20.6024 17.3032 21.2849C17.0205 21.9674 16.875 22.6988 16.875 23.4375C16.875 24.1762 17.0205 24.9076 17.3032 25.5901C17.5859 26.2726 18.0002 26.8926 18.5225 27.415C19.0449 27.9373 19.6649 28.3516 20.3474 28.6343C21.0299 28.917 21.7613 29.0625 22.5 29.0625C23.9918 29.0625 25.4226 28.4699 26.4775 27.415C27.5324 26.3601 28.125 24.9293 28.125 23.4375C28.125 21.9457 27.5324 20.5149 26.4775 19.46C25.4226 18.4051 23.9918 17.8125 22.5 17.8125Z" fill="black"/>
</g>
<defs>
<clipPath id="clip0_398_521">
<rect width="45" height="45" fill="white"/>
</clipPath>
</defs>
</svg>
