<svg width="40" height="40" viewBox="0 0 40 40" fill="none" xmlns="http://www.w3.org/2000/svg">
<g clip-path="url(#clip0_398_796)">
<path fill-rule="evenodd" clip-rule="evenodd" d="M21.1783 24.227C20.8658 24.5394 20.4419 24.715 20 24.715C19.558 24.715 19.1342 24.5394 18.8216 24.227L14.1066 19.512C13.8735 19.2788 13.7148 18.9817 13.6506 18.6583C13.5864 18.3349 13.6195 17.9997 13.7458 17.6951C13.8721 17.3906 14.086 17.1303 14.3602 16.9473C14.6345 16.7643 14.9569 16.6667 15.2866 16.667H24.7133C25.043 16.6667 25.3654 16.7643 25.6397 16.9473C25.914 17.1303 26.1278 17.3906 26.2541 17.6951C26.3804 17.9997 26.4136 18.3349 26.3494 18.6583C26.2851 18.9817 26.1264 19.2788 25.8933 19.512L21.1783 24.227Z" fill="#595959"/>
</g>
<defs>
<clipPath id="clip0_398_796">
<rect width="40" height="40" fill="white"/>
</clipPath>
</defs>
</svg>
