<svg width="18" height="20" viewBox="0 0 18 20" fill="none" xmlns="http://www.w3.org/2000/svg">
<g clip-path="url(#clip0_665_46)">
<path d="M12.5511 2.36244C12.2958 2.07856 11.9568 1.90658 11.5965 1.8781C11.2362 1.84963 10.8788 1.96657 10.5899 2.20744L8.40512 4.02828C7.49755 4.78476 6.43301 5.27486 5.30987 5.45327L3.67712 5.71161C3.12962 5.79911 2.72837 6.45411 2.99237 7.09661C3.24062 7.69911 4.03112 9.28744 6.26237 11.8633L3.12887 15.3449C3.05724 15.4218 3.0001 15.5138 2.96079 15.6154C2.92149 15.7171 2.9008 15.8265 2.89993 15.9371C2.89907 16.0478 2.91804 16.1575 2.95575 16.2599C2.99346 16.3623 3.04915 16.4554 3.11957 16.5336C3.18999 16.6118 3.27373 16.6737 3.3659 16.7156C3.45808 16.7575 3.55683 16.7786 3.65642 16.7776C3.756 16.7767 3.85442 16.7537 3.94592 16.71C4.03742 16.6664 4.12018 16.6029 4.18937 16.5233L7.32287 13.0416C9.64112 15.5208 11.0706 16.3991 11.6129 16.6749C12.1904 16.9683 12.7806 16.5224 12.8586 15.9141L13.0919 14.0999C13.2524 12.852 13.6935 11.6692 14.3744 10.6608L16.0124 8.23327C16.2292 7.91225 16.3344 7.51509 16.3088 7.11475C16.2831 6.71442 16.1284 6.33781 15.8729 6.05411L12.5511 2.36244Z" fill="#FF5943" fill-opacity="0.5"/>
</g>
<defs>
<clipPath id="clip0_665_46">
<rect width="18" height="20" fill="white"/>
</clipPath>
</defs>
</svg>
